<?xml version="1.0" standalone="no"?>
<!DOCTYPE svg PUBLIC "-//W3C//DTD SVG 20010904//EN"
 "http://www.w3.org/TR/2001/REC-SVG-20010904/DTD/svg10.dtd">
<svg version="1.0" xmlns="http://www.w3.org/2000/svg"
 width="347.000000pt" height="368.000000pt" viewBox="0 0 347.000000 368.000000"
 preserveAspectRatio="xMidYMid meet">

<g transform="translate(0.000000,368.000000) scale(0.100000,-0.100000)"
fill="#000000" stroke="none">
<path d="M2005 3448 c-12 -36 -172 -834 -168 -843 2 -5 18 -17 36 -25 45 -21
45 -51 2 -267 -21 -101 -35 -190 -31 -198 9 -24 36 -18 46 11 16 41 80 362 80
399 0 45 -17 80 -46 96 -13 7 -24 18 -24 24 0 7 36 187 80 401 44 214 78 394
75 401 -6 17 -44 17 -50 1z"/>
<path d="M2097 3432 c-7 -11 -117 -568 -117 -592 0 -24 26 -38 42 -22 13 13
130 591 123 610 -5 13 -41 17 -48 4z"/>
<path d="M2194 3422 c-13 -8 -128 -598 -120 -618 7 -17 30 -18 44 -1 5 6 35
144 66 306 40 217 52 298 44 308 -12 15 -18 16 -34 5z"/>
<path d="M2276 3402 c-3 -5 -38 -188 -78 -407 -55 -301 -76 -399 -88 -402 -56
-18 -73 -30 -89 -62 -19 -37 -81 -351 -81 -408 0 -28 4 -33 25 -33 19 0 25 6
29 33 51 310 75 406 104 408 9 1 28 2 41 2 13 1 27 9 32 17 5 8 36 168 70 355
33 187 67 371 74 409 7 38 11 75 8 82 -6 15 -39 19 -47 6z"/>
<path d="M1615 3250 c-328 -35 -629 -174 -869 -401 -109 -103 -123 -123 -105
-145 6 -8 14 -14 18 -14 3 0 52 45 108 99 261 254 578 391 941 408 128 6 150
15 122 48 -14 16 -90 18 -215 5z"/>
<path d="M2394 3085 c-9 -21 -3 -27 95 -84 179 -106 335 -252 450 -421 211
-308 232 -582 65 -836 -33 -51 -242 -270 -250 -262 -1 2 2 26 7 53 5 28 28
151 49 275 36 200 38 226 25 239 -25 26 -40 -3 -70 -134 -53 -232 -120 -395
-164 -395 -49 0 -41 123 25 395 28 117 29 131 9 139 -26 10 -41 -20 -69 -145
-34 -151 -58 -224 -103 -311 -55 -105 -83 -102 -90 9 -5 63 12 209 39 336 l10
47 54 0 c40 0 56 4 60 15 11 26 -16 45 -63 45 -38 0 -44 3 -39 18 3 9 17 80
31 156 27 142 25 161 -11 154 -16 -3 -24 -29 -49 -163 l-31 -160 -34 -3 c-68
-5 -82 -11 -78 -35 3 -19 10 -22 51 -25 26 -2 47 -5 47 -8 0 -3 -9 -58 -21
-122 -13 -77 -31 -139 -51 -182 l-31 -65 -8 63 c-5 43 -20 88 -45 135 -21 40
-47 90 -58 112 -31 60 -28 153 7 229 25 53 26 61 13 75 -14 13 -18 13 -35 -3
-33 -30 -64 -131 -66 -215 -1 -66 -7 -89 -44 -176 -69 -158 -131 -282 -152
-301 -17 -16 -19 -16 -25 0 -11 28 5 160 37 324 17 84 28 159 25 167 -8 21
-33 18 -46 -5 l-11 -21 -26 21 c-40 31 -95 27 -138 -11 -43 -38 -99 -150 -120
-244 -23 -97 -18 -223 11 -262 44 -58 104 -56 167 8 22 21 41 39 43 39 2 0 4
-11 4 -25 0 -30 32 -65 59 -65 52 0 99 75 237 378 l19 43 40 -76 c40 -78 55
-162 41 -220 -18 -71 -101 -89 -157 -34 -29 28 -33 29 -48 15 -14 -15 -14 -19
-1 -43 53 -92 220 -78 295 25 17 22 33 41 38 41 4 1 7 -14 7 -32 0 -31 21 -73
44 -89 34 -23 90 2 126 56 l18 29 15 -36 c28 -66 90 -76 143 -23 36 36 39 33
24 -29 -7 -30 -28 -60 -88 -120 -88 -90 -115 -139 -116 -207 -2 -116 123 -137
178 -29 18 34 51 159 60 227 7 48 11 53 111 142 233 205 324 366 333 584 9
219 -69 418 -249 641 -114 142 -241 252 -399 347 -86 52 -117 60 -126 35z
m-597 -1121 c50 -77 -22 -360 -110 -432 -28 -23 -61 -11 -74 28 -34 94 37 349
113 409 35 28 50 26 71 -5z m859 -681 c-23 -127 -62 -201 -97 -183 -39 21 -17
96 53 175 22 25 42 45 45 45 3 0 2 -17 -1 -37z"/>
<path d="M730 2589 c-118 -21 -233 -97 -300 -197 -65 -98 -88 -256 -55 -368
58 -196 278 -293 488 -214 70 26 138 98 164 173 23 66 26 233 4 246 -32 20
-41 1 -41 -83 0 -47 -7 -106 -16 -137 -34 -114 -143 -178 -285 -166 -84 7
-126 25 -182 76 -64 59 -90 125 -90 226 1 170 92 303 250 366 89 36 280 33
516 -9 181 -33 258 -38 335 -23 24 5 41 6 39 2 -65 -121 -82 -189 -113 -456
-36 -319 -70 -466 -136 -599 -39 -77 -111 -153 -173 -182 -110 -52 -271 -18
-316 66 -46 86 1 220 76 220 32 0 57 22 49 44 -6 15 -15 17 -50 13 -86 -9
-144 -82 -152 -187 -13 -188 217 -300 423 -206 182 83 282 326 335 811 24 223
40 307 74 380 27 60 86 129 128 151 21 11 28 21 26 37 -4 28 -22 27 -118 -9
-114 -42 -212 -43 -430 -5 -195 33 -367 45 -450 30z"/>
<path d="M719 2466 c-89 -24 -175 -89 -162 -122 8 -22 27 -17 83 21 76 51 114
58 270 51 74 -3 149 -9 166 -12 24 -4 33 -2 38 11 11 30 -12 42 -102 54 -113
14 -234 13 -293 -3z"/>
<path d="M507 2278 c-9 -7 -19 -31 -23 -54 -5 -33 -3 -42 11 -48 24 -9 33 0
45 46 9 32 9 44 -2 54 -11 12 -17 12 -31 2z"/>
<path d="M295 1844 c-37 -37 2 -346 67 -539 164 -487 568 -851 1078 -972 157
-37 400 -43 569 -14 475 81 868 374 1084 806 84 169 139 371 141 520 1 74 -1
80 -19 80 -16 0 -21 -9 -27 -45 -30 -195 -42 -252 -69 -337 -90 -282 -267
-528 -516 -715 -88 -66 -281 -165 -393 -202 -238 -78 -522 -91 -765 -34 -261
60 -493 189 -684 381 -260 260 -399 578 -418 952 -6 129 -15 151 -48 119z"/>
<path d="M1860 1385 c-5 -14 -10 -41 -10 -59 0 -41 -27 -199 -41 -243 -17 -54
-46 -83 -84 -83 -110 0 -128 82 -65 307 20 74 17 95 -14 91 -46 -7 -98 -302
-66 -378 21 -50 65 -75 137 -75 52 0 66 4 89 25 53 50 93 190 97 350 2 73 0
85 -15 88 -12 2 -21 -6 -28 -23z"/>
<path d="M1696 1305 c-7 -8 -22 -57 -32 -110 -20 -108 -14 -148 24 -153 23 -4
25 1 22 59 -1 19 6 66 14 103 9 37 16 75 16 86 0 24 -26 33 -44 15z"/>
<path d="M1144 1065 c-10 -25 2 -42 63 -83 85 -58 191 -108 290 -139 82 -25
101 -27 268 -27 168 0 186 2 269 27 155 48 356 165 356 207 0 33 -27 34 -67 3
-228 -177 -547 -235 -822 -151 -86 26 -212 89 -278 139 -57 43 -71 47 -79 24z"/>
<path d="M980 865 c-11 -13 -10 -19 6 -36 33 -37 102 -79 118 -73 29 11 17 39
-34 77 -64 48 -74 51 -90 32z"/>
<path d="M2467 838 c-57 -42 -71 -70 -41 -82 16 -6 85 36 118 73 15 17 16 23
6 36 -17 21 -19 20 -83 -27z"/>
<path d="M1267 833 c-3 -5 -28 -66 -57 -136 -53 -129 -55 -153 -14 -145 10 2
26 23 37 53 11 28 22 52 23 54 2 2 28 -6 59 -19 59 -24 85 -22 85 9 0 14 -15
25 -57 42 -32 12 -59 23 -61 24 -6 5 22 55 30 55 5 0 36 -12 70 -26 52 -22 63
-23 75 -11 24 23 6 41 -77 75 -81 33 -105 38 -113 25z"/>
<path d="M2103 790 c-24 -11 -43 -26 -43 -35 0 -21 90 -247 106 -264 11 -12
21 -11 67 8 81 33 112 74 109 148 -2 48 -41 123 -76 144 -40 24 -108 24 -163
-1z m121 -41 c34 -16 69 -92 61 -131 -7 -29 -59 -72 -80 -65 -9 3 -74 152 -75
173 0 11 35 32 57 33 7 1 23 -4 37 -10z"/>
<path d="M1544 740 c-33 -13 -62 -56 -73 -111 -15 -68 -14 -95 5 -135 20 -43
59 -64 116 -64 79 0 116 47 125 159 4 52 2 74 -11 100 -26 50 -104 75 -162 51z
m102 -71 c13 -15 18 -33 16 -70 -4 -97 -55 -144 -110 -101 -24 18 -27 26 -26
80 1 78 22 112 68 112 21 0 40 -8 52 -21z"/>
<path d="M1864 740 c-51 -16 -77 -53 -82 -118 -5 -74 11 -131 47 -166 58 -56
157 -38 194 34 32 63 4 202 -48 236 -29 19 -74 25 -111 14z m76 -60 c22 -12
40 -67 40 -122 0 -46 -28 -78 -68 -78 -46 0 -66 31 -70 109 -4 62 -2 70 19 85
27 18 52 20 79 6z"/>
</g>
</svg>
